<?xml version="1.0" encoding="UTF-8"?>
<svg id="Capa_2" data-name="Capa 2" xmlns="http://www.w3.org/2000/svg" viewBox="0 0 486 557.93">
  <defs>
    <style>
      .cls-1 {
        fill: none;
      }

      .cls-2 {
        fill: #fff;
      }

      .cls-3 {
        fill: #152c46;
      }
    </style>
  </defs>
  <g id="Capa_18" data-name="Capa 18">
    <g id="Blanco">
      <g id="I._Blanco" data-name="I. Blanco">
        <path class="cls-1" d="M402,158.07c-11.59,0-21.86,5.64-28.23,14.32l-62.77-27.01v-33.79c0-4.09-1.99-7.92-5.32-10.28l-55.47-39.16c-4.32-3.05-10.09-3.07-14.44-.05l-56.37,39.21c-3.38,2.35-5.4,6.21-5.4,10.33v35.26l-61.43,25.96c-6.34-8.95-16.77-14.8-28.57-14.8-19.33,0-35,15.67-35,35,0,17.55,12.92,32.08,29.76,34.61v69.91l-5.36,3.73c-3.38,2.35-5.4,6.21-5.4,10.33v88.85c0,6.95,5.63,12.58,12.58,12.58h71.47l58.44,39.89c-.96,3.2-1.49,6.59-1.49,10.11,0,19.33,15.67,35,35,35s35-15.67,35-35c0-3.71-.58-7.28-1.65-10.63l55.85-39.37h70.22c6.95,0,12.58-5.63,12.58-12.58v-88.9c0-4.09-1.99-7.92-5.32-10.28l-2.43-1.72v-72.09c16.35-2.94,28.76-17.24,28.76-34.43,0-19.33-15.67-35-35-35Zm-206,7.77v-46.22c0-2.8,1.37-5.41,3.66-7.01l38.26-26.62c2.95-2.05,6.87-2.04,9.8,.03l37.66,26.58c2.27,1.6,3.61,4.2,3.61,6.98v60.35c0,4.72-3.82,8.54-8.54,8.54h-75.92c-4.72,0-8.54-3.82-8.54-8.54v-14.09Zm-13,214.7c0,4.72-3.82,8.54-8.54,8.54H98.54c-4.72,0-8.54-3.82-8.54-8.54v-60.31c0-2.8,1.37-5.41,3.66-7.01l11.1-7.72,27.17-18.9c2.95-2.05,6.87-2.04,9.8,.03l37.66,26.58c2.27,1.6,3.61,4.2,3.61,6.98v60.35Zm77.75,51.8c-4.97-2.72-10.68-4.26-16.75-4.26s-12.14,1.65-17.22,4.53l-29.85-20.38c4.72-1.81,8.07-6.38,8.07-11.73v-88.9c0-4.09-1.99-7.92-5.32-10.28l-55.47-39.16c-4.32-3.05-10.09-3.07-14.44-.05l-25.01,17.39v-58.25c7.24-5.34,12.35-13.41,13.81-22.69l55.43-23.43v25.36c0,6.95,5.63,12.58,12.58,12.58h111.84c6.95,0,12.58-5.63,12.58-12.58v-26.81l56.34,24.24c1.38,9.97,6.96,18.59,14.9,24.03v59.28l-27.04-19.09c-4.32-3.05-10.09-3.07-14.44-.05l-56.37,39.21c-3.38,2.35-5.4,6.21-5.4,10.33v88.85c0,5.92,4.09,10.87,9.6,12.21l-27.85,19.63Zm134.25-62.82v11.02c0,4.72-3.82,8.54-8.54,8.54h-75.92c-4.72,0-8.54-3.82-8.54-8.54v-60.31c0-2.8,1.37-5.41,3.66-7.01l38.26-26.62c2.95-2.05,6.87-2.04,9.8,.03l28.51,20.13,9.14,6.45c2.27,1.6,3.61,4.2,3.61,6.98v49.33Z"/>
        <g>
          <path class="cls-1" d="M402,158.07c-11.59,0-21.86,5.64-28.23,14.32l-62.77-27.01v-33.79c0-4.09-1.99-7.92-5.32-10.28l-55.47-39.16c-4.32-3.05-10.09-3.07-14.44-.05l-56.37,39.21c-3.38,2.35-5.4,6.21-5.4,10.33v35.26l-61.43,25.96c-6.34-8.95-16.77-14.8-28.57-14.8-19.33,0-35,15.67-35,35,0,17.55,12.92,32.08,29.76,34.61v69.91l-5.36,3.73c-3.38,2.35-5.4,6.21-5.4,10.33v88.85c0,6.95,5.63,12.58,12.58,12.58h71.47l58.44,39.89c-.96,3.2-1.49,6.59-1.49,10.11,0,19.33,15.67,35,35,35s35-15.67,35-35c0-3.71-.58-7.28-1.65-10.63l55.85-39.37h70.22c6.95,0,12.58-5.63,12.58-12.58v-88.9c0-4.09-1.99-7.92-5.32-10.28l-2.43-1.72v-72.09c16.35-2.94,28.76-17.24,28.76-34.43,0-19.33-15.67-35-35-35Zm-206,7.77v-46.22c0-2.8,1.37-5.41,3.66-7.01l38.26-26.62c2.95-2.05,6.87-2.04,9.8,.03l37.66,26.58c2.27,1.6,3.61,4.2,3.61,6.98v60.35c0,4.72-3.82,8.54-8.54,8.54h-75.92c-4.72,0-8.54-3.82-8.54-8.54v-14.09Zm-13,214.7c0,4.72-3.82,8.54-8.54,8.54H98.54c-4.72,0-8.54-3.82-8.54-8.54v-60.31c0-2.8,1.37-5.41,3.66-7.01l11.1-7.72,27.17-18.9c2.95-2.05,6.87-2.04,9.8,.03l37.66,26.58c2.27,1.6,3.61,4.2,3.61,6.98v60.35Zm77.75,51.8c-4.97-2.72-10.68-4.26-16.75-4.26s-12.14,1.65-17.22,4.53l-29.85-20.38c4.72-1.81,8.07-6.38,8.07-11.73v-88.9c0-4.09-1.99-7.92-5.32-10.28l-55.47-39.16c-4.32-3.05-10.09-3.07-14.44-.05l-25.01,17.39v-58.25c7.24-5.34,12.35-13.41,13.81-22.69l55.43-23.43v25.36c0,6.95,5.63,12.58,12.58,12.58h111.84c6.95,0,12.58-5.63,12.58-12.58v-26.81l56.34,24.24c1.38,9.97,6.96,18.59,14.9,24.03v59.28l-27.04-19.09c-4.32-3.05-10.09-3.07-14.44-.05l-56.37,39.21c-3.38,2.35-5.4,6.21-5.4,10.33v88.85c0,5.92,4.09,10.87,9.6,12.21l-27.85,19.63Zm134.25-62.82v11.02c0,4.72-3.82,8.54-8.54,8.54h-75.92c-4.72,0-8.54-3.82-8.54-8.54v-60.31c0-2.8,1.37-5.41,3.66-7.01l38.26-26.62c2.95-2.05,6.87-2.04,9.8,.03l28.51,20.13,9.14,6.45c2.27,1.6,3.61,4.2,3.61,6.98v49.33Z"/>
          <path class="cls-2" d="M279,400.49v-88.85c0-4.12,2.02-7.97,5.4-10.33l56.37-39.21c4.34-3.02,10.11-3,14.44,.05l27.04,19.09v-59.28c-7.94-5.44-13.51-14.06-14.9-24.03l-56.34-24.24v26.81c0,6.95-5.63,12.58-12.58,12.58h-111.84c-6.95,0-12.58-5.63-12.58-12.58v-25.36l-55.43,23.43c-1.46,9.28-6.57,17.34-13.81,22.69v58.25l25.01-17.39c4.34-3.02,10.11-3,14.44,.05l55.47,39.16c3.34,2.36,5.32,6.19,5.32,10.28v88.9c0,5.36-3.36,9.92-8.07,11.73l29.85,20.38c5.09-2.88,10.96-4.53,17.22-4.53s11.77,1.54,16.75,4.26l27.85-19.63c-5.51-1.34-9.6-6.29-9.6-12.21Z"/>
          <path class="cls-2" d="M486,166.67c0-19.66-10.37-37.85-27.28-47.88L271.37,7.77c-17.49-10.37-39.25-10.37-56.74,0L27.28,118.8C10.37,128.82,0,147.02,0,166.67v224.58c0,19.66,10.37,37.85,27.28,47.88l187.35,111.02c17.49,10.37,39.25,10.37,56.74,0l187.35-111.02c16.91-10.02,27.28-28.22,27.28-47.88V166.67Zm-77.76,60.83v72.09l2.43,1.72c3.34,2.36,5.32,6.19,5.32,10.28v88.9c0,6.95-5.63,12.58-12.58,12.58h-70.22l-55.85,39.37c1.07,3.35,1.65,6.92,1.65,10.63,0,19.33-15.67,35-35,35s-35-15.67-35-35c0-3.51,.52-6.91,1.49-10.11l-58.44-39.89H80.58c-6.95,0-12.58-5.63-12.58-12.58v-88.85c0-4.12,2.02-7.97,5.4-10.33l5.36-3.73v-69.91c-16.84-2.53-29.76-17.06-29.76-34.61,0-19.33,15.67-35,35-35,11.8,0,22.23,5.85,28.57,14.8l61.43-25.96v-35.26c0-4.12,2.02-7.97,5.4-10.33l56.37-39.21c4.34-3.02,10.11-3,14.44,.05l55.47,39.16c3.34,2.36,5.32,6.19,5.32,10.28v33.79l62.77,27.01c6.37-8.68,16.64-14.32,28.23-14.32,19.33,0,35,15.67,35,35,0,17.2-12.41,31.49-28.76,34.43Z"/>
          <path class="cls-2" d="M204.54,188.47h75.92c4.72,0,8.54-3.82,8.54-8.54v-60.35c0-2.77-1.35-5.38-3.61-6.98l-37.66-26.58c-2.93-2.07-6.85-2.08-9.8-.03l-38.26,26.62c-2.29,1.6-3.66,4.21-3.66,7.01v60.31c0,4.72,3.82,8.54,8.54,8.54Z"/>
          <path class="cls-2" d="M179.39,313.21l-37.66-26.58c-2.93-2.07-6.85-2.08-9.8-.03l-27.17,18.9-11.1,7.72c-2.29,1.6-3.66,4.21-3.66,7.01v60.31c0,4.72,3.82,8.54,8.54,8.54h75.92c4.72,0,8.54-3.82,8.54-8.54v-60.35c0-2.77-1.35-5.38-3.61-6.98Z"/>
          <path class="cls-2" d="M391.39,313.21l-9.14-6.45-28.51-20.13c-2.93-2.07-6.85-2.08-9.8-.03l-38.26,26.62c-2.29,1.6-3.66,4.21-3.66,7.01v60.31c0,4.72,3.82,8.54,8.54,8.54h75.92c4.72,0,8.54-3.82,8.54-8.54v-60.35c0-2.77-1.35-5.38-3.61-6.98Z"/>
        </g>
      </g>
    </g>
    <g id="Negro">
      <g id="I._Negro" data-name="I. Negro">
        <path d="M486,166.67c0-19.66-10.37-37.85-27.28-47.88L271.37,7.77c-17.49-10.37-39.25-10.37-56.74,0L27.28,118.8C10.37,128.82,0,147.02,0,166.67v224.58c0,19.66,10.37,37.85,27.28,47.88l187.35,111.02c17.49,10.37,39.25,10.37,56.74,0l187.35-111.02c16.91-10.02,27.28-28.22,27.28-47.88V166.67Zm-77.76,60.83v72.09l2.43,1.72c3.34,2.36,5.32,6.19,5.32,10.28v88.9c0,6.95-5.63,12.58-12.58,12.58h-70.22l-55.85,39.37c1.07,3.35,1.65,6.92,1.65,10.63,0,19.33-15.67,35-35,35s-35-15.67-35-35c0-3.51,.52-6.91,1.49-10.11l-58.44-39.89H80.58c-6.95,0-12.58-5.63-12.58-12.58v-88.85c0-4.12,2.02-7.97,5.4-10.33l5.36-3.73v-69.91c-16.84-2.53-29.76-17.06-29.76-34.61,0-19.33,15.67-35,35-35,11.8,0,22.23,5.85,28.57,14.8l61.43-25.96v-35.26c0-4.12,2.02-7.97,5.4-10.33l56.37-39.21c4.34-3.02,10.11-3,14.44,.05l55.47,39.16c3.34,2.36,5.32,6.19,5.32,10.28v33.79l62.77,27.01c6.37-8.68,16.64-14.32,28.23-14.32,19.33,0,35,15.67,35,35,0,17.2-12.41,31.49-28.76,34.43Z"/>
        <path d="M204.54,188.47h75.92c4.72,0,8.54-3.82,8.54-8.54v-60.35c0-2.77-1.35-5.38-3.61-6.98l-37.66-26.58c-2.93-2.07-6.85-2.08-9.8-.03l-38.26,26.62c-2.29,1.6-3.66,4.21-3.66,7.01v60.31c0,4.72,3.82,8.54,8.54,8.54Z"/>
        <path d="M179.39,313.21l-37.66-26.58c-2.93-2.07-6.85-2.08-9.8-.03l-27.17,18.9-11.1,7.72c-2.29,1.6-3.66,4.21-3.66,7.01v60.31c0,4.72,3.82,8.54,8.54,8.54h75.92c4.72,0,8.54-3.82,8.54-8.54v-60.35c0-2.77-1.35-5.38-3.61-6.98Z"/>
        <path d="M279,400.49v-88.85c0-4.12,2.02-7.97,5.4-10.33l56.37-39.21c4.34-3.02,10.11-3,14.44,.05l27.04,19.09v-59.28c-7.94-5.44-13.51-14.06-14.9-24.03l-56.34-24.24v26.81c0,6.95-5.63,12.58-12.58,12.58h-111.84c-6.95,0-12.58-5.63-12.58-12.58v-25.36l-55.43,23.43c-1.46,9.28-6.57,17.34-13.81,22.69v58.25l25.01-17.39c4.34-3.02,10.11-3,14.44,.05l55.47,39.16c3.34,2.36,5.32,6.19,5.32,10.28v88.9c0,5.36-3.36,9.92-8.07,11.73l29.85,20.38c5.09-2.88,10.96-4.53,17.22-4.53s11.77,1.54,16.75,4.26l27.85-19.63c-5.51-1.34-9.6-6.29-9.6-12.21Z"/>
        <path d="M391.39,313.21l-9.14-6.45-28.51-20.13c-2.93-2.07-6.85-2.08-9.8-.03l-38.26,26.62c-2.29,1.6-3.66,4.21-3.66,7.01v60.31c0,4.72,3.82,8.54,8.54,8.54h75.92c4.72,0,8.54-3.82,8.54-8.54v-60.35c0-2.77-1.35-5.38-3.61-6.98Z"/>
      </g>
    </g>
    <g id="Original">
      <g id="I._Original" data-name="I. Original">
        <path class="cls-3" d="M458.72,439.13l-187.35,111.02c-17.49,10.37-39.25,10.37-56.74,0L27.28,439.13C10.37,429.11,0,410.91,0,391.25V166.67c0-19.66,10.37-37.85,27.28-47.88L214.63,7.77c17.49-10.37,39.25-10.37,56.74,0l187.35,111.02c16.91,10.02,27.28,28.22,27.28,47.88v224.58c0,19.66-10.37,37.85-27.28,47.88Z"/>
        <g>
          <path class="cls-1" d="M196,179.93c0,4.72,3.82,8.54,8.54,8.54h75.92c4.72,0,8.54-3.82,8.54-8.54v-60.35c0-2.77-1.35-5.38-3.61-6.98l-37.66-26.58c-2.93-2.07-6.85-2.08-9.8-.03l-38.26,26.62c-2.29,1.6-3.66,4.21-3.66,7.01v60.31Z"/>
          <path class="cls-1" d="M174.46,389.07c4.72,0,8.54-3.82,8.54-8.54v-60.35c0-2.77-1.35-5.38-3.61-6.98l-37.66-26.58c-2.93-2.07-6.85-2.08-9.8-.03l-27.17,18.9-11.1,7.72c-2.29,1.6-3.66,4.21-3.66,7.01v60.31c0,4.72,3.82,8.54,8.54,8.54h75.92Z"/>
          <path class="cls-1" d="M367.34,197.93l-56.34-24.24v26.81c0,6.95-5.63,12.58-12.58,12.58h-111.84c-6.95,0-12.58-5.63-12.58-12.58v-25.36l-55.43,23.43c-1.46,9.28-6.57,17.34-13.81,22.69v58.25l25.01-17.39c4.34-3.02,10.11-3,14.44,.05l55.47,39.16c3.34,2.36,5.32,6.19,5.32,10.28v88.9c0,5.36-3.36,9.92-8.07,11.73l29.85,20.38c5.09-2.88,10.96-4.53,17.22-4.53s11.77,1.54,16.75,4.26l27.85-19.63c-5.51-1.34-9.6-6.29-9.6-12.21v-88.85c0-4.12,2.02-7.97,5.4-10.33l56.37-39.21c4.34-3.02,10.11-3,14.44,.05l27.04,19.09v-59.28c-7.94-5.44-13.51-14.06-14.9-24.03Z"/>
          <path class="cls-1" d="M391.39,313.21l-9.14-6.45-28.51-20.13c-2.93-2.07-6.85-2.08-9.8-.03l-38.26,26.62c-2.29,1.6-3.66,4.21-3.66,7.01v60.31c0,4.72,3.82,8.54,8.54,8.54h75.92c4.72,0,8.54-3.82,8.54-8.54v-60.35c0-2.77-1.35-5.38-3.61-6.98Z"/>
          <path class="cls-2" d="M437,193.07c0-19.33-15.67-35-35-35-11.59,0-21.86,5.64-28.23,14.32l-62.77-27.01v-33.79c0-4.09-1.99-7.92-5.32-10.28l-55.47-39.16c-4.32-3.05-10.09-3.07-14.44-.05l-56.37,39.21c-3.38,2.35-5.4,6.21-5.4,10.33v35.26l-61.43,25.96c-6.34-8.95-16.77-14.8-28.57-14.8-19.33,0-35,15.67-35,35,0,17.55,12.92,32.08,29.76,34.61v69.91l-5.36,3.73c-3.38,2.35-5.4,6.21-5.4,10.33v88.85c0,6.95,5.63,12.58,12.58,12.58h71.47l58.44,39.89c-.96,3.2-1.49,6.59-1.49,10.11,0,19.33,15.67,35,35,35s35-15.67,35-35c0-3.71-.58-7.28-1.65-10.63l55.85-39.37h70.22c6.95,0,12.58-5.63,12.58-12.58v-88.9c0-4.09-1.99-7.92-5.32-10.28l-2.43-1.72v-72.09c16.35-2.94,28.76-17.24,28.76-34.43ZM196,119.62c0-2.8,1.37-5.41,3.66-7.01l38.26-26.62c2.95-2.05,6.87-2.04,9.8,.03l37.66,26.58c2.27,1.6,3.61,4.2,3.61,6.98v60.35c0,4.72-3.82,8.54-8.54,8.54h-75.92c-4.72,0-8.54-3.82-8.54-8.54v-60.31ZM116.89,389.07h-18.35c-4.72,0-8.54-3.82-8.54-8.54v-60.31c0-2.8,1.37-5.41,3.66-7.01l11.1-7.72,27.17-18.9c2.95-2.05,6.87-2.04,9.8,.03l37.66,26.58c2.27,1.6,3.61,4.2,3.61,6.98v60.35c0,4.72-3.82,8.54-8.54,8.54h-57.57Zm278.11-8.54c0,4.72-3.82,8.54-8.54,8.54h-75.92c-4.72,0-8.54-3.82-8.54-8.54v-60.31c0-2.8,1.37-5.41,3.66-7.01l38.26-26.62c2.95-2.05,6.87-2.04,9.8,.03l28.51,20.13,9.14,6.45c2.27,1.6,3.61,4.2,3.61,6.98v60.35Zm-39.8-118.38c-4.32-3.05-10.09-3.07-14.44-.05l-56.37,39.21c-3.38,2.35-5.4,6.21-5.4,10.33v88.85c0,5.92,4.09,10.87,9.6,12.21l-27.85,19.63c-4.97-2.72-10.68-4.26-16.75-4.26s-12.14,1.65-17.22,4.53l-29.85-20.38c4.72-1.81,8.07-6.38,8.07-11.73v-88.9c0-4.09-1.99-7.92-5.32-10.28l-55.47-39.16c-4.32-3.05-10.09-3.07-14.44-.05l-25.01,17.39v-58.25c7.24-5.34,12.35-13.41,13.81-22.69l55.43-23.43v25.36c0,6.95,5.63,12.58,12.58,12.58h111.84c6.95,0,12.58-5.63,12.58-12.58v-26.81l56.34,24.24c1.38,9.97,6.96,18.59,14.9,24.03v59.28l-27.04-19.09Z"/>
        </g>
      </g>
    </g>
  </g>
</svg>